# xmcd CD database file
# Copyright (C) 1993-1998 Ti Kan
#
# Track frame offsets:
#  150
#  16907
#  36499
#  53706
#  71444
#  90877
#  107202
#  125367
#  141835
#  161111
#  180611
#  198520
#  220310
#  234542
#  255256
#  272290
#  291026
#  308953
#
# Disc length: 4352 seconds
#
# Revision: 1
# Processed by: cddbd v1.4b41PL1 Copyright (c) Steve Scherf et al.
# Submitted via: CDWizzard Release:4.61
#
DISCID=fb10fe12
DTITLE=SyberSound - Dance Mixes Vol. #2
DYEAR=1900
DGENRE=
TTITLE0=Wannabe
TTITLE1=MMM Bop
TTITLE2=Love Fool
TTITLE3=Everyday Is A Winding Road
TTITLE4=Tonight Is The Night
TTITLE5=I Want You
TTITLE6=Bitch
TTITLE7=Unbreak My Heart
TTITLE8=Where Do You Go
TTITLE9=I Love You Always Forever
TTITLE10=Don't Speak
TTITLE11=I Believe I Can Fly
TTITLE12=Oooh Aah...Just A Little Bit
TTITLE13=Where Have The Cowboys Gone
TTITLE14=Virtual Insanity
TTITLE15=Do What's Good For Me
TTITLE16=I Believe In You And Me
TTITLE17=Jellyhead
EXTD=
EXTT0=
EXTT1=
EXTT2=
EXTT3=
EXTT4=
EXTT5=
EXTT6=
EXTT7=
EXTT8=
EXTT9=
EXTT10=
EXTT11=
EXTT12=
EXTT13=
EXTT14=
EXTT15=
EXTT16=
EXTT17=
PLAYORDER=
